<svg xmlns="http://www.w3.org/2000/svg" viewBox="0 0 90.92 90.98"><g id="Capa_2" data-name="Capa 2"><g id="PANTALLA_1" data-name="PANTALLA 1"><path d="M53.27,45.54c0-5.38,0-10.76,0-16.14a1.07,1.07,0,0,0-.76-1.18,18.71,18.71,0,1,0,0,34.55,1.08,1.08,0,0,0,.77-1.18C53.26,56.24,53.27,50.89,53.27,45.54Zm5.37-9.86h.85c4.11,0,8.22,0,12.33,0a3.59,3.59,0,0,0,2.51-.91c1.85-1.58,3.73-3.12,5.58-4.7a1.18,1.18,0,0,1,1.4-.25,7.05,7.05,0,0,0,9.59-6.31,6.82,6.82,0,0,0-3.82-6.63,6.63,6.63,0,0,0-7.51.62,6.75,6.75,0,0,0-2.67,7.16,1.22,1.22,0,0,1-.49,1.41c-1.53,1.22-3,2.52-4.52,3.74a2.44,2.44,0,0,1-1.34.49c-3.64,0-7.28,0-10.91,0h-1Zm0,25c4,0,8,0,11.89,0a2.4,2.4,0,0,1,1.34.48c1.26,1,2.43,2.09,3.71,3.05,1,.76,1.78,1.5,1.16,2.88a1.06,1.06,0,0,0,0,.26,7.15,7.15,0,0,0,4.77,7.18,7.12,7.12,0,0,0,7.94-11.08,7,7,0,0,0-8.18-2.27,1.12,1.12,0,0,1-1.33-.26c-1.85-1.57-3.73-3.11-5.57-4.69a3.69,3.69,0,0,0-2.51-.93c-4.14,0-8.28,0-12.42,0-.26,0-.51,0-.78.05Zm0-12.48H76.36a1.15,1.15,0,0,1,1.23.7,7,7,0,0,0,8,3.55,7.15,7.15,0,0,0,.06-13.82,7,7,0,0,0-8.05,3.56,1.11,1.11,0,0,1-1.15.68c-5.59,0-11.19,0-16.78,0h-1Zm0-37.46c1.81,0,3.56,0,5.3,0a1.14,1.14,0,0,1,1.22.7A6.76,6.76,0,0,0,71,15.14a7.05,7.05,0,0,0,7.32-5.72,7.15,7.15,0,0,0-4.57-8.11,7,7,0,0,0-8.63,3.38A1.09,1.09,0,0,1,64,5.37c-1.77,0-3.53,0-5.34,0Zm0,74.92c1.78,0,3.47,0,5.15,0a1.35,1.35,0,0,1,1.44.82,7,7,0,0,0,7.94,3.43,7.15,7.15,0,0,0,.06-13.8,7,7,0,0,0-8,3.36,1.48,1.48,0,0,1-1.58.87c-1.68,0-3.35,0-5,0Z"/><path d="M0,39.43a3.24,3.24,0,0,1,3.58-2c.82.07,1.65,0,2.54,0A40.86,40.86,0,0,1,12,23.3c-.73-.69-1.48-1.39-2.21-2.12-1.44-1.45-1.44-2.9,0-4.34q3.51-3.54,7-7.06a2.68,2.68,0,0,1,4.2,0c.73.73,1.43,1.5,2.19,2.29a40.68,40.68,0,0,1,14.1-5.87V3.1c0-2,1-3.09,3-3.1,3.38,0,6.75,0,10.12,0a2.66,2.66,0,0,1,2.82,2.78q0,9.77,0,19.52c0,.12,0,.24,0,.3C41.48,19.53,31.69,22.42,25,32.82c-5.4,8.42-5.28,17.47.28,25.78,6.73,10.07,16.41,12.82,28,9.75V87.83c0,2.13-1,3.15-3.17,3.15H40.34c-2,0-3-1.06-3.05-3.09V84.82a40.5,40.5,0,0,1-14.16-5.94c-.71.78-1.39,1.59-2.13,2.34a2.67,2.67,0,0,1-4.2,0q-3.53-3.51-7-7.06Q7.63,72,9.79,69.8c.71-.71,1.46-1.38,2.21-2.09A41.07,41.07,0,0,1,6.13,53.52c-.85,0-1.71-.06-2.55,0a3.25,3.25,0,0,1-3.58-2Z"/><path d="M53.27,45.54c0,5.35,0,10.7,0,16.05a1.08,1.08,0,0,1-.77,1.18,18.71,18.71,0,1,1,0-34.55,1.07,1.07,0,0,1,.76,1.18C53.26,34.78,53.27,40.16,53.27,45.54Z"/><path d="M58.64,35.68V30.33h1c3.63,0,7.27,0,10.91,0a2.44,2.44,0,0,0,1.34-.49c1.53-1.22,3-2.52,4.52-3.74a1.22,1.22,0,0,0,.49-1.41,6.75,6.75,0,0,1,2.67-7.16,6.63,6.63,0,0,1,7.51-.62,6.82,6.82,0,0,1,3.82,6.63,7.05,7.05,0,0,1-9.59,6.31,1.18,1.18,0,0,0-1.4.25c-1.85,1.58-3.73,3.12-5.58,4.7a3.59,3.59,0,0,1-2.51.91c-4.11,0-8.22,0-12.33,0Z"/><path d="M58.64,60.65v-5.3c.27,0,.52-.05.78-.05,4.14,0,8.28,0,12.42,0a3.69,3.69,0,0,1,2.51.93c1.84,1.58,3.72,3.12,5.57,4.69a1.12,1.12,0,0,0,1.33.26,7,7,0,0,1,8.18,2.27,7.11,7.11,0,1,1-12.71,3.9,1.06,1.06,0,0,1,0-.26c.62-1.38-.15-2.12-1.16-2.88-1.28-1-2.45-2.07-3.71-3.05a2.4,2.4,0,0,0-1.34-.48C66.6,60.64,62.67,60.65,58.64,60.65Z"/><path d="M58.64,48.17V42.82h1c5.59,0,11.19,0,16.78,0a1.11,1.11,0,0,0,1.15-.68,7,7,0,0,1,8.05-3.56,7.15,7.15,0,0,1-.06,13.82,7,7,0,0,1-8-3.55,1.15,1.15,0,0,0-1.23-.7H58.64Z"/><path d="M58.64,10.71V5.36c1.81,0,3.57,0,5.34,0a1.09,1.09,0,0,0,1.16-.68,7,7,0,0,1,8.63-3.38,7.15,7.15,0,0,1,4.57,8.11A7.05,7.05,0,0,1,71,15.14a6.76,6.76,0,0,1-5.86-3.74,1.14,1.14,0,0,0-1.22-.7C62.2,10.73,60.45,10.71,58.64,10.71Z"/><path d="M58.64,85.63V80.28c1.69,0,3.36,0,5,0a1.48,1.48,0,0,0,1.58-.87,7,7,0,0,1,8-3.36,7.15,7.15,0,0,1-.06,13.8,7,7,0,0,1-7.94-3.43,1.35,1.35,0,0,0-1.44-.82C62.11,85.66,60.42,85.63,58.64,85.63Z"/></g></g></svg>